<svg width="20" height="20" viewBox="0 0 20 20" fill="none" xmlns="http://www.w3.org/2000/svg">
<path d="M14.2902 12.5786H13.3868L13.0667 12.2699C14.226 10.9251 14.8632 9.20834 14.862 7.43282C14.862 5.96275 14.426 4.52569 13.6093 3.30337C12.7926 2.08105 11.6317 1.12837 10.2736 0.565793C8.9154 0.00322052 7.42091 -0.143974 5.97909 0.142823C4.53726 0.42962 3.21286 1.13753 2.17336 2.17702C1.13386 3.21652 0.425958 4.54092 0.139161 5.98275C-0.147636 7.42457 -0.000441585 8.91907 0.562131 10.2772C1.1247 11.6354 2.07739 12.7963 3.29971 13.613C4.52203 14.4297 5.95909 14.8656 7.42916 14.8656C9.27021 14.8656 10.9626 14.191 12.2662 13.0703L12.575 13.3905V14.2939L18.2925 20L19.9963 18.2962L14.2902 12.5786ZM7.42916 12.5786C4.58182 12.5786 2.28336 10.2802 2.28336 7.43282C2.28336 4.58548 4.58182 2.28702 7.42916 2.28702C10.2765 2.28702 12.575 4.58548 12.575 7.43282C12.575 10.2802 10.2765 12.5786 7.42916 12.5786Z" fill="white"/>
</svg>
